<svg xmlns="http://www.w3.org/2000/svg" x="0px" y="0px" width="100" height="100" viewBox="0 0 50 50">
  <path fill="white" d="M 24.951172 1.0019531 A 1.0001 1.0001 0 0 0 24.130859 1.5039062 L 16.361328 15.101562 L 0.81640625 18.017578 A 1.0001 1.0001 0 0 0 0.26367188 19.675781 L 10.953125 31.337891 L 9.0078125 47.882812 A 1.0001 1.0001 0 0 0 10.423828 48.90625 L 25.013672 42.097656 L 40.599609 48.916016 A 1.0001 1.0001 0 0 0 41.980469 47.804688 L 40.117188 38.416016 C 40.554454 38.188642 41.012209 38.047292 42.005859 37.033203 C 43.458334 35.552584 43.966797 33.238281 43.966797 33.238281 A 1.0001 1.0001 0 0 0 42.646484 32.046875 C 32.515517 35.874679 25.924387 36.339618 21.929688 35.898438 C 19.932337 35.677847 18.581502 35.231972 17.746094 34.859375 C 17.738494 34.855975 17.743928 34.856916 17.736328 34.853516 L 28.640625 25.767578 A 1.0001 1.0001 0 0 0 28.707031 24.292969 C 27.882941 23.468878 26.716441 23.161475 25.333984 22.865234 C 23.951528 22.568994 22.359184 22.381006 20.833984 22.253906 C 20.103814 22.193056 20.102495 22.228499 19.4375 22.193359 C 21.45036 21.577016 24.165235 21 28 21 C 32.047501 21 34.517672 21.769352 35.990234 22.326172 L 27.375 29.21875 A 1.0001 1.0001 0 0 0 27.541016 30.888672 C 27.541016 30.888672 28.488183 31.365498 30.222656 31.710938 C 31.957129 32.056376 34.555014 32.310127 38.087891 31.996094 A 1.0001 1.0001 0 0 0 38.736328 31.675781 L 49.736328 19.675781 A 1.0001 1.0001 0 0 0 49.183594 18.017578 L 33.638672 15.101562 L 25.869141 1.5039062 A 1.0001 1.0001 0 0 0 24.951172 1.0019531 z M 25 4.0175781 L 32.130859 16.496094 A 1.0001 1.0001 0 0 0 32.816406 16.982422 L 47.046875 19.650391 L 37.548828 30.011719 C 34.413653 30.254287 32.092751 30.042699 30.613281 29.748047 C 30.247917 29.675277 30.368544 29.668207 30.103516 29.597656 L 38.625 22.78125 A 1.0001 1.0001 0 0 0 38.447266 21.105469 C 38.447266 21.105469 34.222222 19 28 19 C 23.388889 19 20.022423 19.769774 17.792969 20.556641 C 15.563514 21.343507 14.400391 22.199219 14.400391 22.199219 A 1.0001 1.0001 0 0 0 15 24 C 15 24 17.716416 24.000294 20.666016 24.246094 C 22.140816 24.368994 23.673472 24.556006 24.916016 24.822266 C 25.543054 24.956631 25.696818 25.102088 26.115234 25.269531 L 15.359375 34.232422 A 1.0001 1.0001 0 0 0 15.339844 35.751953 C 15.339844 35.751953 15.904548 36.227457 16.931641 36.685547 C 17.958733 37.143637 19.518287 37.644559 21.710938 37.886719 C 25.759037 38.333797 32.090257 37.781057 41.160156 34.636719 C 40.968505 34.9959 40.803806 35.402919 40.578125 35.632812 A 1.0001 1.0001 0 0 0 40.578125 35.634766 C 39.428167 36.808378 38.652344 37.091797 38.652344 37.091797 A 1.0001 1.0001 0 0 0 38.039062 38.216797 L 39.646484 46.316406 L 25.400391 40.083984 A 1.0001 1.0001 0 0 0 24.576172 40.09375 L 11.201172 46.335938 L 12.992188 31.117188 A 1.0001 1.0001 0 0 0 12.736328 30.324219 L 2.953125 19.650391 L 17.183594 16.982422 A 1.0001 1.0001 0 0 0 17.869141 16.496094 L 25 4.0175781 z"></path>
</svg>